<svg width="123" height="165" viewBox="0 0 123 165" fill="none" xmlns="http://www.w3.org/2000/svg">
<path d="M79.9606 30.3916H90.654V92.7482H79.9606V30.3916ZM50.8331 34.7545C62.0053 34.7545 70.2248 43.3462 70.2248 56.9049C70.2248 70.5979 62.0053 79.1895 50.8331 79.1895C39.6609 79.1895 31.4414 70.5979 31.4414 56.9049C31.4414 43.3462 39.6609 34.7545 50.8331 34.7545ZM50.8331 42.8763C45.3268 42.8763 41.5762 47.7763 41.5762 56.9049C41.5762 66.1678 45.3268 71.1348 50.8331 71.1348C56.3394 71.1348 60.0103 66.1678 60.0103 56.9049C60.0103 47.7763 56.3394 42.8763 50.8331 42.8763Z" fill="#C3A2ED"/>
<path fill-rule="evenodd" clip-rule="evenodd" d="M10 10H112.617V112.617H45.0643V122.617H112.617H122.617V112.617V10V0H112.617H10H0V10V82.7933H10V10Z" fill="#C3A2ED"/>
<path d="M98.3839 137.012H102.006V138.723C102.006 144.256 99.1887 149.152 93.3199 150.896L91.14 147.442C96.1705 145.933 98.3839 142.345 98.3839 138.723V137.012ZM99.2893 137.012H102.911V138.723C102.911 142.076 105.024 145.43 109.954 146.872L107.875 150.326C102.039 148.649 99.2893 143.988 99.2893 138.723V137.012ZM92.2467 135.771H109.048V139.393H92.2467V135.771ZM98.4174 149.555H102.878V156.229H98.4174V149.555ZM114.481 145.564H119.948V149.287H114.481V145.564ZM111.396 133.323H115.856V164.378H111.396V133.323ZM91.5424 158.475L91.0059 154.887C96.3381 154.887 103.616 154.921 109.786 154.049L110.122 157.302C103.649 158.509 96.7406 158.509 91.5424 158.475Z" fill="#C3A2ED"/>
<path d="M62.9893 139.931H70.1997V143.519H62.9893V139.931ZM54.2364 135.235H57.8248V138.589C57.8248 144.927 55.1754 150.327 49.3065 152.473L46.959 148.985C52.09 147.275 54.2364 142.982 54.2364 138.589V135.235ZM55.2089 135.235H58.7638V138.623C58.7638 142.613 60.8095 146.604 65.7058 148.281L63.3247 151.702C57.7577 149.69 55.2089 144.491 55.2089 138.623V135.235ZM68.657 133.357H73.1173V156.263H68.657V133.357ZM52.5596 160.287H73.788V163.842H52.5596V160.287ZM52.5596 153.949H57.0534V162.266H52.5596V153.949Z" fill="#C3A2ED"/>
<path d="M24.2084 133.29H28.7023V164.445H24.2084V133.29ZM11.9677 135.47C16.6628 135.47 20.117 139.763 20.117 146.537C20.117 153.378 16.6628 157.671 11.9677 157.671C7.2726 157.671 3.81836 153.378 3.81836 146.537C3.81836 139.763 7.2726 135.47 11.9677 135.47ZM11.9677 139.528C9.65368 139.528 8.07747 141.976 8.07747 146.537C8.07747 151.165 9.65368 153.647 11.9677 153.647C14.2817 153.647 15.8244 151.165 15.8244 146.537C15.8244 141.976 14.2817 139.528 11.9677 139.528Z" fill="#C3A2ED"/>
</svg>
